<svg width="400" height="400" viewBox="0 0 400 400" fill="none" xmlns="http://www.w3.org/2000/svg">
<g clip-path="url(#clip0_9_31)">
<rect x="277" y="3" width="120" height="120" fill="#FF0000" stroke="black" stroke-width="6"/>
<rect x="3" y="277" width="120" height="120" fill="#FFD600" stroke="black" stroke-width="6"/>
<line x1="279.614" y1="121.472" x2="123.614" y2="398.472" stroke="black" stroke-width="6"/>
<line x1="278.81" y1="279.393" x2="122.81" y2="397.393" stroke="black" stroke-width="6"/>
<rect x="277" y="277" width="120" height="120" fill="#0063F9" stroke="black" stroke-width="6"/>
<rect x="3" y="140" width="120" height="120" fill="#FF0000" stroke="black" stroke-width="6"/>
<rect x="277" y="140" width="120" height="120" fill="#A20FE7" stroke="black" stroke-width="6"/>
<rect x="3" y="3" width="120" height="120" fill="#00E617" stroke="black" stroke-width="6"/>
<line x1="275.134" y1="122.349" x2="124.134" y2="2.34866" stroke="black" stroke-width="6"/>
<line x1="271.192" y1="397.056" x2="122.192" y2="1.05648" stroke="black" stroke-width="6"/>
<line x1="274.413" y1="258.52" x2="123.413" y2="1.51974" stroke="black" stroke-width="6"/>
<line x1="277.071" y1="398.698" x2="123.189" y2="275.993" stroke="black" stroke-width="6"/>
<line x1="274.389" y1="259.975" x2="121.389" y2="279.975" stroke="black" stroke-width="6"/>
<line x1="276.626" y1="1.45048" x2="123.626" y2="278.451" stroke="black" stroke-width="6"/>
<line x1="277.325" y1="122.982" x2="121.325" y2="139.982" stroke="black" stroke-width="6"/>
<line x1="275.171" y1="259.378" x2="119.171" y2="139.378" stroke="black" stroke-width="6"/>
<line x1="276.427" y1="398.543" x2="122.351" y2="141.588" stroke="black" stroke-width="6"/>
</g>
<defs>
<clipPath id="clip0_9_31">
<rect width="400" height="400" fill="white"/>
</clipPath>
</defs>
</svg>
